<svg width="188" height="31" viewBox="0 0 188 31" fill="none" xmlns="http://www.w3.org/2000/svg">
<g clip-path="url(#clip0_3256_99)">
<path d="M23.2959 10.3359L21.0836 13.4973L21.0664 13.5259V17.4533H23.2502V20.929H24.4336V10.3359H23.2959ZM22.2498 16.2699V13.8975L23.2502 12.474V16.2699H22.2498Z" fill="#FF9500"/>
<path d="M18.5909 13.0685L17.9792 13.8403V10.3359H16.7959V13.8403L16.1842 13.0685V10.3359H14.9951V13.8689L16.7959 15.8812V20.929H17.9792V15.8812L19.78 13.8689V10.3359H18.5909V13.0685Z" fill="#FF9500"/>
<path d="M34.7004 27.6234L29.2809 22.2039C30.6987 20.2888 31.539 17.9164 31.539 15.3553C31.539 8.99258 26.3597 3.81323 19.997 3.81323C13.6343 3.81323 8.44922 8.99258 8.44922 15.3553C8.44922 21.718 13.6286 26.8973 19.9913 26.8973C22.5524 26.8973 24.9191 26.057 26.8399 24.6392L32.2594 30.0587L34.7004 27.6176V27.6234ZM19.9913 23.696C15.395 23.696 11.6506 19.9515 11.6506 15.3553C11.6506 10.759 15.395 7.0146 19.9913 7.0146C24.5875 7.0146 28.332 10.759 28.332 15.3553C28.332 19.9515 24.5875 23.696 19.9913 23.696Z" fill="#FF9500"/>
<path d="M5.69336 17.0817V13.6345H-0.00620937V17.0817H5.69336Z" fill="#FF9500"/>
<path d="M6.12711 11.4777L7.44629 8.29297L2.18057 6.11184L0.861395 9.29662L6.12711 11.4777Z" fill="#FF9500"/>
<path d="M8.66697 6.46658L11.1045 4.02905L7.07429 -0.00115125L4.63676 2.43637L8.66697 6.46658Z" fill="#FF9500"/>
<path d="M65.4279 14.9895L61.2032 21.0206V3.79614H56.2754V29.4242H61.3347L71.4418 14.9895H65.4279Z" fill="#FF9500"/>
<path d="M47.4832 29.4242L52.0623 22.8157V3.79614H47.1344V21.2664L41.4863 29.4242H47.4832Z" fill="#FF9500"/>
<path d="M181.98 14.9895L177.761 21.0206V3.79614H172.833V29.4242H177.892L187.999 14.9895H181.98Z" fill="#FF9500"/>
<path d="M164.041 29.4242L168.62 22.8157V3.79614H163.686V21.2664L158.044 29.4242H164.041Z" fill="#FF9500"/>
<path d="M157.678 12.7998H143.964V17.7276H157.678V12.7998Z" fill="#FF9500"/>
<path d="M79.4629 12.7998H75.2383V20.4774H79.4629V12.7998Z" fill="#FF9500"/>
<path d="M85.6084 12.7998H81.3838V20.4774H85.6084V12.7998Z" fill="#FF9500"/>
<path d="M92.9825 21.575V12.7998H88.0547V19.9914L81.5205 29.424H87.5173L92.9539 21.575H92.9825Z" fill="#FF9500"/>
<path d="M122.943 19.4941V24.7421L137.601 30.0644V24.8164L122.943 19.4941Z" fill="#FF9500"/>
<path d="M122.943 16.5729L137.601 21.8952V16.6472L122.943 11.325V16.5729Z" fill="#FF9500"/>
<path d="M137.601 13.726V8.47803L122.943 3.15576V8.40371L137.601 13.726Z" fill="#FF9500"/>
<path d="M108.629 6.7574L110.704 3.79614H104.684L96.8467 14.9895H102.861L105.176 11.6909H111.504V15.9499L102.072 29.4242H108.086L116.575 17.299V6.7574H108.629Z" fill="#FF9500"/>
</g>
<defs>
<clipPath id="clip0_3256_99">
<rect width="188" height="30.0642" fill="white"/>
</clipPath>
</defs>
</svg>
