<svg width="173" height="105" viewBox="0 0 173 105" fill="none" xmlns="http://www.w3.org/2000/svg">
<g clip-path="url(#clip0_3285_3427)">
<path d="M93.4171 21.959L88.7365 28.6766L88.6982 28.7342V37.0816H93.3152V44.4652H95.8196V21.959H93.4171ZM91.2027 34.5649V29.5283L93.312 26.4993V34.5617H91.2027V34.5649Z" fill="#FF9500"/>
<path d="M83.4765 27.764L82.1797 29.4002V21.959H79.6753V29.4002L78.3816 27.764V21.959H75.874V29.461L79.6753 33.7388V44.4652H82.1797V33.7388L85.9809 29.461V21.959H83.4765V27.764Z" fill="#FF9500"/>
<path d="M117.528 58.6911L106.064 47.1707C109.059 43.0979 110.837 38.0645 110.837 32.6244C110.837 19.1028 99.8888 8.10107 86.4331 8.10107C72.9774 8.10107 62.0293 19.1028 62.0293 32.6244C62.0293 46.1461 72.9774 57.1478 86.4331 57.1478C91.8498 57.1478 96.8555 55.3644 100.912 52.3514L112.376 63.8718L117.531 58.6911H117.528ZM86.4331 50.3438C76.7085 50.3438 68.8002 42.3935 68.8002 32.6244C68.8002 22.8554 76.7117 14.9051 86.4331 14.9051C96.1545 14.9051 104.066 22.8554 104.066 32.6244C104.066 42.3935 96.1545 50.3438 86.4331 50.3438Z" fill="#FF9500"/>
<path d="M56.2148 36.2872V28.958H44.1675V36.2872H56.2148Z" fill="#FF9500"/>
<path d="M57.1191 24.3899L59.9102 17.6187L48.7798 12.9857L45.9888 19.757L57.1191 24.3899Z" fill="#FF9500"/>
<path d="M62.4834 13.745L67.6406 8.5625L59.1219 0.00198536L53.9646 5.18448L62.4834 13.745Z" fill="#FF9500"/>
<path d="M28.2456 87.1269L23.2622 94.2767V73.855H17.4473V104.244H23.4184L35.3447 87.1269H28.2456Z" fill="#FF9500"/>
<path d="M7.07675 104.244L12.4775 96.406V73.855H6.66253V94.5681L0 104.244H7.07675Z" fill="#FF9500"/>
<path d="M165.766 87.1269L160.786 94.2767V73.855H154.968V104.244H160.939L172.865 87.1269H165.766Z" fill="#FF9500"/>
<path d="M144.597 104.244L149.998 96.406V73.855H144.183V94.5681L137.521 104.244H144.597Z" fill="#FF9500"/>
<path d="M137.097 84.5303H120.914V90.377H137.097V84.5303Z" fill="#FF9500"/>
<path d="M44.8056 84.5303H39.8223V93.6365H44.8056V84.5303Z" fill="#FF9500"/>
<path d="M52.0586 84.5303H47.0752V93.6365H52.0586V84.5303Z" fill="#FF9500"/>
<path d="M60.7631 94.9365V84.5303H54.9449V93.0569L47.2373 104.244H54.3109L60.7249 94.9365H60.7631Z" fill="#FF9500"/>
<path d="M96.1084 92.4712V98.6893L113.4 105V98.7821L96.1084 92.4712Z" fill="#FF9500"/>
<path d="M96.1084 89.0033L113.4 95.3142V89.0961L96.1084 82.7852V89.0033Z" fill="#FF9500"/>
<path d="M113.4 85.6282V79.4101L96.1084 73.0991V79.3172L113.4 85.6282Z" fill="#FF9500"/>
<path d="M79.2172 77.3675L81.6643 73.855H74.5652L65.3154 87.1269H72.4177L75.142 83.2141H82.6138V88.2667L71.4809 104.244H78.58L88.5977 89.8677V77.3675H79.2172Z" fill="#FF9500"/>
</g>
<defs>
<clipPath id="clip0_3285_3427">
<rect width="172.866" height="105" fill="white"/>
</clipPath>
</defs>
</svg>
